<svg width="111" height="45" viewBox="0 0 111 45" fill="none" xmlns="http://www.w3.org/2000/svg">
<rect width="110.625" height="45" rx="5.625" fill="white"/>
<path d="M52.7144 30V15.1183H58.0189C59.1767 15.1183 60.1359 15.329 60.8965 15.7504C61.657 16.1719 62.2262 16.7484 62.6041 17.4799C62.9819 18.2065 63.1709 19.0252 63.1709 19.9359C63.1709 20.8515 62.9795 21.675 62.5968 22.4065C62.219 23.1332 61.6473 23.7097 60.8819 24.136C60.1214 24.5574 59.1646 24.7681 58.0117 24.7681H54.3639V22.8643H57.8082C58.5397 22.8643 59.1331 22.7384 59.5885 22.4865C60.0439 22.2297 60.3781 21.8809 60.5913 21.4401C60.8044 20.9993 60.911 20.4979 60.911 19.9359C60.911 19.374 60.8044 18.875 60.5913 18.439C60.3781 18.0031 60.0414 17.6615 59.5812 17.4145C59.1259 17.1674 58.5252 17.0439 57.7791 17.0439H54.9598V30H52.7144ZM67.7402 15.1183V30H65.5676V15.1183H67.7402ZM73.8501 30.2471C73.1428 30.2471 72.5034 30.1163 71.9317 29.8547C71.3601 29.5882 70.9072 29.2031 70.5729 28.6993C70.2435 28.1955 70.0788 27.5778 70.0788 26.8464C70.0788 26.2166 70.1999 25.6982 70.4421 25.2913C70.6843 24.8844 71.0113 24.5623 71.4231 24.3249C71.8348 24.0875 72.2951 23.9083 72.8037 23.7872C73.3124 23.6661 73.8307 23.574 74.3587 23.511C75.0272 23.4335 75.5698 23.3706 75.9864 23.3221C76.403 23.2688 76.7058 23.184 76.8947 23.0678C77.0837 22.9515 77.1781 22.7626 77.1781 22.501V22.4501C77.1781 21.8155 76.9989 21.3238 76.6404 20.975C76.2868 20.6262 75.7587 20.4519 75.0563 20.4519C74.3248 20.4519 73.7483 20.6141 73.3269 20.9387C72.9103 21.2584 72.622 21.6145 72.4622 22.0069L70.4203 21.5418C70.6625 20.8636 71.0162 20.3162 71.4812 19.8996C71.9511 19.4781 72.4912 19.173 73.1016 18.984C73.712 18.7903 74.3539 18.6934 75.0272 18.6934C75.4729 18.6934 75.9452 18.7467 76.4442 18.8532C76.948 18.955 77.4179 19.1439 77.8539 19.42C78.2947 19.6961 78.6556 20.091 78.9366 20.6045C79.2176 21.1131 79.3581 21.7744 79.3581 22.5882V30H77.2363V28.474H77.1491C77.0086 28.755 76.7978 29.0311 76.5169 29.3024C76.2359 29.5737 75.875 29.799 75.4342 29.9782C74.9933 30.1574 74.4653 30.2471 73.8501 30.2471ZM74.3224 28.5031C74.9231 28.5031 75.4366 28.3844 75.8629 28.147C76.294 27.9097 76.621 27.5996 76.8439 27.2169C77.0715 26.8294 77.1854 26.4152 77.1854 25.9744V24.5356C77.1079 24.6131 76.9577 24.6858 76.7349 24.7536C76.5169 24.8166 76.2674 24.8723 75.9864 24.9207C75.7055 24.9643 75.4317 25.0055 75.1653 25.0443C74.8989 25.0782 74.676 25.1072 74.4968 25.1315C74.0753 25.1848 73.6902 25.2744 73.3414 25.4003C72.9975 25.5263 72.7214 25.7079 72.513 25.9453C72.3096 26.1778 72.2079 26.4879 72.2079 26.8754C72.2079 27.4131 72.4065 27.8201 72.8037 28.0962C73.2009 28.3675 73.7072 28.5031 74.3224 28.5031ZM83.1644 34.1855C82.8399 34.1855 82.5444 34.1588 82.2779 34.1056C82.0115 34.0571 81.8129 34.0038 81.6821 33.9457L82.2053 32.1654C82.6025 32.272 82.9561 32.318 83.2662 32.3035C83.5762 32.2889 83.8499 32.1727 84.0873 31.9547C84.3295 31.7367 84.5427 31.3806 84.7267 30.8865L84.9956 30.1453L80.9118 18.8387H83.2371L86.0638 27.5003H86.18L89.0067 18.8387H91.3392L86.7395 31.4896C86.5264 32.0709 86.2551 32.5626 85.9257 32.9647C85.5963 33.3716 85.2039 33.6768 84.7485 33.8803C84.2932 34.0838 83.7651 34.1855 83.1644 34.1855Z" fill="black"/>
<path d="M19 12V33.6L37 22.8L19 12Z" fill="black"/>
</svg>
